<?xml version="1.0" standalone="no"?><!DOCTYPE svg PUBLIC "-//W3C//DTD SVG 1.1//EN" "http://www.w3.org/Graphics/SVG/1.1/DTD/svg11.dtd"><svg t="1673661086580" class="icon" viewBox="0 0 1024 1024" version="1.1" xmlns="http://www.w3.org/2000/svg" p-id="4389" xmlns:xlink="http://www.w3.org/1999/xlink" width="200" height="200"><path d="M512 0L0 320h1024L512 0z m288 384l32 64v384h128V448l32-64h-192z m-256 0l32 64v384h128V448l32-64h-192z m-256 0l32 64v384h128V448l32-64h-192z m-256 0l32 64v384h128V448l32-64H32z m0 512L0 1024h1024l-32-128H32zM576 192c0 35.346-28.654 64-64 64s-64-28.654-64-64 28.654-64 64-64 64 28.654 64 64z" p-id="4390"></path></svg>